# xmcd
#
# Track frame offsets:
# 150
# 20713
# 42775
# 64800
# 80195
# 103850
# 127220
# 145875
# 162888
# 185420
# 205138
# 229680
# 245638
#
# Disc length: 3519 seconds
#
#
# Revision: 0
# Processed by: cddbd v1.5.1PL0 Copyright (c) Steve Scherf et al.
# Submitted via: FreeRIP 2.90 
#
DISCID=bf0dbd0d
DTITLE=山的故事－原聲福音
DYEAR=1900
DGENRE=
TTITLE0=山的故事
TTITLE1=如果有一天
TTITLE2=心與星
TTITLE3=瑪利亞。基督的愛
TTITLE4=耶穌愛你
TTITLE5=耶穌的母親
TTITLE6=耶穌、我的最愛
TTITLE7=生活就是耶穌
TTITLE8=交付
TTITLE9=耶穌的夢是我的家
TTITLE10=母親永恆愛
TTITLE11=父的天國
TTITLE12=光鹽天主經
EXTD=
EXTT0=
EXTT1=
EXTT2=
EXTT3=
EXTT4=
EXTT5=
EXTT6=
EXTT7=
EXTT8=
EXTT9=
EXTT10=
EXTT11=
EXTT12=
PLAYORDER=
